<svg xmlns="http://www.w3.org/2000/svg" viewBox="0 0 1080 1080" fill="currentColor">
  <g transform="translate(0,1080) scale(0.1,-0.1)">
    <path d="M3162 8633 c-11 -32 -335 -972 -721 -2089 -385 -1117 -701 -2036 -701 -2043 0 -8 107 -11 411 -9 l411 3 151 448 151 447 812 0 812 0 150 -447 149 -448 414 0 c363 0 414 2 411 15 -2 8 -326 952 -720 2097 l-717 2083 -497 0 -496 0 -20 -57z m813 -1685 c157 -468 285 -858 285 -865 0 -11 -111 -13 -585 -13 -322 0 -585 3 -585 8 0 4 131 399 292 879 190 566 296 867 301 858 4 -8 136 -398 292 -867z M5750 7554 c0 -5 923 -1319 1036 -1475 l34 -46 -530 -761 c-292 -419 -530 -766 -530 -772 0 -7 142 -10 425 -10 l425 0 31 42 c16 24 161 238 321 476 216 322 293 431 302 422 6 -6 151 -219 321 -473 l310 -462 429 -3 c357 -2 427 0 423 11 -3 8 -240 352 -526 766 -287 414 -522 756 -524 759 -1 4 235 345 524 757 289 413 529 756 533 763 6 9 -81 12 -422 12 l-429 0 -323 -476 c-177 -261 -324 -473 -326 -471 -3 2 -148 215 -323 473 l-318 469 -431 3 c-238 1 -432 0 -432 -4z M1700 3539 l0 -270 63 -27 c134 -57 336 -162 407 -213 196 -139 344 -350 414 -592 26 -88 56 -277 56 -347 l0 -40 325 0 c179 0 325 3 325 8 0 4 -5 48 -10 97 -31 265 -121 559 -241 782 l-50 93 2893 2 2893 3 3 388 2 387 -3540 0 -3540 0 0 -271z"/>
  </g>
</svg>
